<?xml version="1.0" standalone="no"?>
<!DOCTYPE svg PUBLIC "-//W3C//DTD SVG 20010904//EN"
 "http://www.w3.org/TR/2001/REC-SVG-20010904/DTD/svg10.dtd">
<svg version="1.0" xmlns="http://www.w3.org/2000/svg"
 width="300.000000pt" height="300.000000pt" viewBox="0 0 300.000000 300.000000"
 preserveAspectRatio="xMidYMid meet">
<metadata>
Created by potrace 1.10, written by Peter Selinger 2001-2011
</metadata>
<g transform="translate(0.000000,300.000000) scale(0.100000,-0.100000)"
fill="#000000" stroke="none">
<path d="M1962 2284 c-12 -8 -22 -21 -22 -28 0 -20 -33 -26 -151 -26 -123 0
-194 -17 -231 -57 -36 -39 -48 -66 -48 -108 0 -44 13 -73 47 -101 l24 -21 -32
-1 c-18 0 -41 -9 -52 -20 -16 -16 -24 -18 -47 -9 -22 9 -34 7 -63 -10 l-35
-21 5 73 c6 71 5 73 -22 91 -25 16 -31 16 -69 3 -33 -11 -46 -23 -63 -59 -13
-24 -23 -60 -23 -80 0 -32 -4 -37 -34 -48 -19 -7 -43 -26 -53 -43 -19 -30 -19
-30 -38 -9 -33 37 -111 19 -154 -35 l-20 -26 -20 20 c-12 12 -30 21 -41 21
-20 0 -74 -26 -112 -52 -9 -7 -20 -9 -24 -5 -15 15 16 55 59 76 58 28 85 75
71 127 -17 71 -105 100 -120 40 -7 -30 -35 -36 -178 -36 -100 0 -118 -3 -164
-26 -62 -31 -92 -74 -92 -133 0 -84 58 -141 144 -141 25 0 46 -4 46 -10 0 -5
-9 -10 -21 -10 -32 0 -86 -60 -95 -104 -13 -72 26 -149 90 -180 99 -47 236 22
253 127 l5 36 32 -34 c41 -43 90 -53 140 -30 20 10 34 21 31 25 -2 4 7 18 20
30 18 17 25 20 25 9 0 -9 -13 -28 -29 -43 -41 -39 -57 -101 -41 -164 13 -54
57 -108 97 -118 43 -11 104 3 133 31 23 22 31 25 48 16 47 -25 124 -4 156 41
13 18 18 19 31 8 24 -20 92 -16 123 7 17 13 34 18 46 13 54 -19 112 27 141
114 13 39 24 55 33 51 7 -3 22 -5 33 -5 18 0 19 -1 3 -25 -9 -14 -12 -25 -7
-25 5 0 16 11 23 25 12 22 20 25 74 25 34 0 90 7 125 15 50 12 67 13 80 3 13
-10 14 -10 4 1 -9 10 0 19 40 40 55 29 97 79 97 117 0 44 -124 124 -193 124
-15 0 -18 5 -13 23 3 12 6 43 6 70 0 39 3 47 18 47 26 0 52 31 52 63 0 27 -40
67 -67 67 -10 0 -13 6 -9 16 3 9 6 20 6 25 0 5 21 19 46 31 79 37 109 120 62
172 -30 32 -59 39 -86 20z m58 -80 c0 -57 -72 -87 -177 -73 -156 20 -223 6
-223 -46 0 -31 28 -46 74 -38 32 5 36 3 36 -15 0 -11 -12 -30 -27 -42 -36 -28
-78 -21 -115 20 -50 54 -31 116 46 151 32 15 65 19 159 19 129 0 185 15 194
50 7 28 33 7 33 -26z m-125 -116 c-4 -13 -9 -47 -12 -75 l-5 -53 37 3 c51 3
56 -18 8 -30 l-38 -9 3 -47 c2 -26 1 -64 -3 -85 -6 -35 -10 -39 -49 -50 -24
-6 -64 -27 -89 -46 l-45 -35 -26 24 c-14 13 -26 31 -26 40 0 18 -20 21 -20 3
0 -7 -9 -24 -20 -38 -21 -27 -29 -130 -10 -130 28 0 -6 -158 -43 -197 -24 -27
-59 -30 -82 -7 -9 9 -17 15 -19 13 -1 -2 -10 -16 -19 -31 -14 -22 -25 -28 -53
-28 -40 0 -84 36 -84 70 0 34 -17 14 -23 -27 -4 -21 -13 -48 -22 -60 -35 -50
-122 -33 -145 29 l-12 33 -14 -50 c-23 -88 -88 -112 -146 -55 -28 29 -30 35
-26 93 4 69 26 109 70 127 39 17 55 3 29 -24 -30 -32 -41 -79 -30 -121 12 -44
44 -48 60 -9 8 22 6 29 -11 41 -25 17 -28 78 -5 87 18 7 55 -27 55 -50 0 -27
18 -5 24 31 8 42 59 95 92 95 30 0 30 -5 -1 -42 -18 -21 -25 -41 -25 -69 0
-73 40 -107 61 -52 8 21 6 30 -11 48 -14 15 -20 33 -18 51 4 41 34 43 56 5 9
-17 20 -31 23 -31 4 0 12 20 18 44 13 55 62 100 98 91 21 -5 23 -2 23 38 0 61
-17 74 -44 35 -33 -49 -51 -56 -84 -31 l-28 21 -16 -29 c-32 -56 -107 -43
-131 22 -15 40 -24 36 -32 -13 -14 -78 -82 -112 -138 -68 -13 11 -28 31 -31
45 -9 35 -26 22 -26 -19 0 -50 -33 -86 -79 -86 -49 0 -78 22 -92 72 -15 58 3
119 48 158 18 17 38 30 43 30 20 0 20 -21 -2 -51 -28 -38 -32 -110 -6 -135 14
-14 20 -15 32 -4 22 18 20 46 -6 81 -17 23 -20 34 -12 47 17 26 47 21 62 -11
16 -34 24 -28 41 30 12 43 53 83 85 83 22 0 20 -15 -5 -49 -36 -48 -24 -141
17 -141 8 0 19 12 25 26 8 22 6 30 -11 46 -25 23 -27 73 -3 83 19 7 53 -26 53
-52 0 -26 18 -4 24 32 4 19 19 48 33 66 21 25 32 30 58 27 l33 -4 4 75 c5 66
8 77 33 98 36 31 51 25 45 -18 -10 -67 -4 -264 8 -286 27 -50 54 -8 57 86 2
54 6 68 25 83 13 10 28 17 34 15 6 -2 12 -33 14 -70 3 -65 3 -66 25 -54 32 18
37 27 37 79 0 39 4 50 25 64 13 8 29 13 35 9 5 -3 10 -41 10 -86 0 -43 4 -79
9 -79 9 0 45 85 52 124 5 23 29 34 29 14 0 -10 10 -13 35 -10 38 5 49 -12 15
-23 -11 -4 -28 -17 -36 -31 -15 -22 -15 -26 0 -49 20 -30 58 -33 85 -6 22 22
41 80 41 124 0 27 -1 28 -22 13 -28 -20 -48 -20 -48 -3 0 8 18 22 40 32 37 17
40 21 40 57 0 64 39 138 73 138 5 0 6 -10 2 -22z m-120 -96 c-8 -41 -43 -70
-90 -78 -22 -3 -46 -11 -52 -16 -15 -12 -43 6 -43 28 0 13 55 15 76 2 14 -9
91 55 99 83 10 30 18 15 10 -19z m-1005 -73 c0 -10 -11 -30 -23 -45 -20 -23
-34 -28 -84 -32 -32 -2 -91 1 -130 7 -81 12 -123 7 -152 -20 -15 -14 -18 -25
-12 -42 7 -18 17 -23 60 -25 39 -2 51 -7 51 -19 0 -31 -31 -53 -76 -53 -35 0
-47 5 -68 31 -35 41 -35 87 2 121 41 40 73 48 200 49 129 0 182 13 197 46 7
16 13 19 22 11 7 -6 13 -19 13 -29z m-125 -116 c-4 -10 -10 -43 -13 -74 l-4
-56 37 1 c51 1 57 -20 8 -28 l-38 -7 0 -82 c-1 -116 -33 -167 -115 -183 -90
-19 -166 76 -125 156 17 33 55 53 80 44 22 -9 18 -18 -14 -32 -35 -15 -46 -49
-25 -79 42 -65 123 16 124 125 0 22 -1 22 -30 7 -30 -16 -56 -12 -44 6 3 5 23
18 45 29 33 17 39 25 39 53 0 68 34 137 68 137 10 0 12 -5 7 -17z m-124 -101
c-6 -2 -9 -8 -6 -13 8 -13 -31 -52 -44 -44 -7 4 1 21 21 46 20 24 34 35 37 28
2 -7 -1 -15 -8 -17z m1495 -10 c92 -48 107 -93 49 -148 -48 -45 -144 -74 -270
-81 -124 -7 -134 -1 -115 76 18 78 84 144 170 172 38 13 123 3 166 -19z m-347
-61 c10 -7 11 -13 2 -30 -15 -26 -31 -19 -31 15 0 25 7 29 29 15z m-555 -116
c-16 -24 -43 -40 -52 -30 -8 8 50 65 59 59 5 -3 2 -16 -7 -29z"/>
<path d="M1189 1774 c-18 -21 -19 -118 -1 -136 22 -22 45 14 46 71 1 61 -21
93 -45 65z"/>
<path d="M1507 1652 c-26 -28 -22 -52 4 -25 12 11 20 26 17 33 -2 7 -9 5 -21
-8z"/>
<path d="M1506 1581 c-11 -12 -16 -24 -12 -28 9 -9 39 22 34 37 -2 7 -10 4
-22 -9z"/>
<path d="M1379 1514 c-18 -22 -17 -111 2 -130 14 -13 17 -13 28 0 18 22 25 86
12 119 -12 31 -23 34 -42 11z"/>
<path d="M1562 1510 c-6 -11 -23 -22 -37 -26 -27 -7 -31 -24 -15 -55 19 -35
39 -22 56 37 17 59 16 75 -4 44z"/>
<path d="M2125 1518 c-20 -68 -154 -119 -315 -120 -93 -1 -94 -1 -50 -12 112
-30 313 28 387 111 33 37 35 53 4 53 -10 0 -20 -12 -26 -32z"/>
<path d="M2186 1490 c-9 -17 -21 -30 -27 -30 -5 0 -7 -11 -3 -24 12 -47 -101
-113 -245 -142 -101 -20 -159 -14 -183 18 -30 39 -62 68 -75 68 -22 0 -14 -31
15 -60 15 -16 35 -39 46 -51 18 -20 25 -21 125 -16 130 6 212 31 296 88 l63
42 6 65 c4 35 5 66 3 68 -2 2 -11 -10 -21 -26z"/>
</g>
</svg>
